<svg t="1728641480079" class="icon" viewBox="0 0 1024 1024" version="1.1" xmlns="http://www.w3.org/2000/svg" p-id="9318"
    width="200" height="200">
    <path
        d="M899.651 795.283c0 41.002-33.547 74.549-74.549 74.549L198.897 869.832c-41.002 0-74.549-33.547-74.549-74.549L124.348 228.717c0-41.002 33.547-74.549 74.549-74.549l626.205 0c41.002 0 74.549 33.547 74.549 74.549L899.651 795.283zM482.181 810.193 482.181 273.445 183.987 273.445l0 521.838c0 7.921 6.989 14.91 14.91 14.91L482.181 810.193zM840.013 273.445 541.819 273.445l0 536.748 283.283 0c7.921 0 14.91-6.989 14.91-14.91L840.012 273.445z"
        p-id="9319"></path>
</svg>