<svg t="1725965683843" class="icon" viewBox="0 0 1024 1024" version="1.1" xmlns="http://www.w3.org/2000/svg" p-id="4280"
    width="200" height="200">
    <path
        d="M896 168.533333v-8.533333C896 55.466667 701.866667 0 512 0 326.4 0 136.533333 53.333333 128 153.6v712.533333c0 102.4 194.133333 157.866667 384 157.866667s384-53.333333 384-157.866667V174.933333v-6.4z m-64 228.266667c-96 53.333333-204.8 83.2-320 83.2s-224-27.733333-320-81.066667v-145.066666c72.533333 44.8 196.266667 68.266667 320 68.266666 123.733333 0 247.466667-23.466667 320-68.266666v142.933333zM192 471.466667c96 46.933333 206.933333 72.533333 320 72.533333 113.066667 0 224-25.6 320-74.666667v183.466667c-96 53.333333-204.8 83.2-320 83.2s-224-27.733333-320-81.066667v-183.466666zM512 64c192 0 320 57.6 320 96S704 256 512 256 192 198.4 192 160 320 64 512 64z m0 896c-206.933333 0-320-61.866667-320-93.866667v-138.666666c96 46.933333 206.933333 72.533333 320 72.533333 113.066667 0 224-25.6 320-74.666667v140.8c0 32-113.066667 93.866667-320 93.866667z"
        fill="#212121" p-id="4281"></path>
</svg>