<svg t="1728641593161" class="icon" viewBox="0 0 1024 1024" version="1.1" xmlns="http://www.w3.org/2000/svg"
    p-id="12189" width="200" height="200">
    <path
        d="M896 1024h-64v-128h-128v-128h-128v-64h-128v-91.008A317.568 317.568 0 0 1 320 640C143.296 640 0 496.768 0 320S143.296 0 320 0s320 143.232 320 320c0 45.568-9.856 88.768-27.008 128H704v128l320 256v192h-128zM256 128c-70.656 0-128 57.344-128 128s57.344 128 128 128 128-57.344 128-128-57.344-128-128-128z"
        fill="" p-id="12190"></path>
</svg>