<svg t="1728642050158" class="icon" viewBox="0 0 1024 1024" version="1.1" xmlns="http://www.w3.org/2000/svg"
    p-id="16723" width="200" height="200">
    <path
        d="M331.008 343.424v51.2c0 3.52 1.92 6.4 4.224 6.4h353.536c2.368 0 4.224-2.88 4.224-6.4v-51.2c0-3.584-1.92-6.4-4.224-6.4H335.232c-2.368 0-4.224 2.816-4.224 6.4z m4.224 230.08h353.536c2.368 0 4.224-2.88 4.224-6.4v-51.2c0-3.52-1.92-6.4-4.224-6.4H335.232c-2.368 0-4.224 2.88-4.224 6.4v51.2c0 3.52 1.92 6.4 4.224 6.4z m354.56 108.48H334.208c-2.304 0-4.224 2.88-4.224 6.4v51.2c0 3.52 1.92 6.4 4.224 6.4h355.584c2.304 0 4.224-2.88 4.224-6.4v-51.2c0-3.52-1.92-6.4-4.224-6.4z m163.328-422.592l-181.376-163.008a67.904 67.904 0 0 0-45.44-17.408H216.32c-37.696 0-68.288 30.912-68.288 68.928V876.16c0 38.016 30.592 68.928 68.288 68.928h591.36c37.696 0 68.352-30.912 68.352-68.928V310.848c0-19.584-8.32-38.272-22.912-51.456z m-49.152 613.632H220.032V150.976H624.64l179.328 161.088v560.96z"
        fill="#000000" p-id="16724"></path>
</svg>